<svg width="16" height="16" viewBox="0 0 16 16" fill="none" xmlns="http://www.w3.org/2000/svg">
<path d="M8 1L2 3V9C2 12.3141 4.68594 15 8 15C11.3141 15 14 12.3141 14 9V3L8 1ZM12.875 9C12.875 11.6922 10.6922 13.875 8 13.875C5.30781 13.875 3.125 11.6922 3.125 9V3.84375L8 2.125L12.875 3.84375V9Z" fill="white"/>
<path d="M5.91145 7.42372C5.85932 7.37134 5.79735 7.32978 5.72911 7.30143C5.66087 7.27307 5.58769 7.25847 5.51379 7.25847C5.4399 7.25847 5.36672 7.27307 5.29848 7.30143C5.23024 7.32978 5.16827 7.37134 5.11614 7.42372C5.06377 7.47585 5.02221 7.53782 4.99385 7.60606C4.96549 7.6743 4.95089 7.74747 4.95089 7.82137C4.95089 7.89527 4.96549 7.96844 4.99385 8.03668C5.02221 8.10493 5.06377 8.16689 5.11614 8.21903L7.17083 10.2737C7.22014 10.3231 7.27872 10.3623 7.3432 10.3891C7.40768 10.4158 7.4768 10.4296 7.54661 10.4296C7.61641 10.4296 7.68554 10.4158 7.75002 10.3891C7.8145 10.3623 7.87307 10.3231 7.92239 10.2737L11.4146 6.78153C11.464 6.73221 11.5032 6.67364 11.5299 6.60916C11.5567 6.54468 11.5704 6.47556 11.5704 6.40575C11.5704 6.33594 11.5567 6.26682 11.5299 6.20234C11.5032 6.13786 11.464 6.07928 11.4146 6.02997L11.3708 5.98622C11.3215 5.93681 11.2629 5.89761 11.1985 5.87087C11.134 5.84412 11.0649 5.83036 10.995 5.83036C10.9252 5.83036 10.8561 5.84412 10.7916 5.87087C10.7272 5.89761 10.6686 5.93681 10.6193 5.98622L7.54583 9.05809L5.91145 7.42372Z" fill="white"/>
</svg>
