<svg width="14" height="14" viewBox="0 0 14 14" fill="none" xmlns="http://www.w3.org/2000/svg">
<path d="M13.1875 9H11.5625V6.625C11.5625 6.55625 11.5063 6.5 11.4375 6.5H7.5625V5H9.25C9.3875 5 9.5 4.8875 9.5 4.75V0.25C9.5 0.1125 9.3875 0 9.25 0H4.75C4.6125 0 4.5 0.1125 4.5 0.25V4.75C4.5 4.8875 4.6125 5 4.75 5H6.4375V6.5H2.5625C2.49375 6.5 2.4375 6.55625 2.4375 6.625V9H0.8125C0.675 9 0.5625 9.1125 0.5625 9.25V13.75C0.5625 13.8875 0.675 14 0.8125 14H5.3125C5.45 14 5.5625 13.8875 5.5625 13.75V9.25C5.5625 9.1125 5.45 9 5.3125 9H3.5625V7.625H10.4375V9H8.6875C8.55 9 8.4375 9.1125 8.4375 9.25V13.75C8.4375 13.8875 8.55 14 8.6875 14H13.1875C13.325 14 13.4375 13.8875 13.4375 13.75V9.25C13.4375 9.1125 13.325 9 13.1875 9ZM4.375 10.1875V12.8125H1.75V10.1875H4.375ZM5.6875 3.8125V1.1875H8.3125V3.8125H5.6875ZM12.25 12.8125H9.625V10.1875H12.25V12.8125Z" fill="white"/>
</svg>
