<svg width="14" height="12" viewBox="0 0 14 12" fill="none" xmlns="http://www.w3.org/2000/svg">
<path d="M5.375 4.90625H12.875C12.9438 4.90625 13 4.85 13 4.78125V3.90625C13 3.8375 12.9438 3.78125 12.875 3.78125H5.375C5.30625 3.78125 5.25 3.8375 5.25 3.90625V4.78125C5.25 4.85 5.30625 4.90625 5.375 4.90625ZM5.25 8.09375C5.25 8.1625 5.30625 8.21875 5.375 8.21875H12.875C12.9438 8.21875 13 8.1625 13 8.09375V7.21875C13 7.15 12.9438 7.09375 12.875 7.09375H5.375C5.30625 7.09375 5.25 7.15 5.25 7.21875V8.09375ZM13.125 0.5H0.875C0.80625 0.5 0.75 0.55625 0.75 0.625V1.5C0.75 1.56875 0.80625 1.625 0.875 1.625H13.125C13.1938 1.625 13.25 1.56875 13.25 1.5V0.625C13.25 0.55625 13.1938 0.5 13.125 0.5ZM13.125 10.375H0.875C0.80625 10.375 0.75 10.4313 0.75 10.5V11.375C0.75 11.4438 0.80625 11.5 0.875 11.5H13.125C13.1938 11.5 13.25 11.4438 13.25 11.375V10.5C13.25 10.4313 13.1938 10.375 13.125 10.375ZM0.803125 6.10781L3.24531 8.03125C3.33594 8.10313 3.47031 8.03906 3.47031 7.92344V4.07656C3.47031 3.96094 3.3375 3.89688 3.24531 3.96875L0.803125 5.89219C0.786703 5.90495 0.773415 5.92131 0.764275 5.93999C0.755134 5.95867 0.750382 5.9792 0.750382 6C0.750382 6.0208 0.755134 6.04133 0.764275 6.06001C0.773415 6.0787 0.786703 6.09505 0.803125 6.10781Z" fill="white"/>
</svg>
