<svg width="14" height="12" viewBox="0 0 14 12" fill="none" xmlns="http://www.w3.org/2000/svg">
<path d="M13.5 0.5H0.5C0.223437 0.5 0 0.723437 0 1V11C0 11.2766 0.223437 11.5 0.5 11.5H13.5C13.7766 11.5 14 11.2766 14 11V1C14 0.723437 13.7766 0.5 13.5 0.5ZM12.875 10.375H1.125V1.625H12.875V10.375ZM8.53594 5.4375H10.4641C10.4844 5.4375 10.5 5.38125 10.5 5.3125V4.5625C10.5 4.49375 10.4844 4.4375 10.4641 4.4375H8.53594C8.51562 4.4375 8.5 4.49375 8.5 4.5625V5.3125C8.5 5.38125 8.51562 5.4375 8.53594 5.4375ZM8.61094 7.6875H11.5125C11.5734 7.6875 11.6234 7.63125 11.6234 7.5625V6.8125C11.6234 6.74375 11.5734 6.6875 11.5125 6.6875H8.61094C8.55 6.6875 8.5 6.74375 8.5 6.8125V7.5625C8.5 7.63125 8.55 7.6875 8.61094 7.6875ZM2.5 8.51562H3.18594C3.25156 8.51562 3.30469 8.46406 3.30937 8.39844C3.36875 7.60938 4.02813 6.98438 4.82812 6.98438C5.62813 6.98438 6.2875 7.60938 6.34688 8.39844C6.35156 8.46406 6.40469 8.51562 6.47031 8.51562H7.15625C7.1732 8.51565 7.18999 8.51222 7.20557 8.50555C7.22116 8.49888 7.23523 8.48911 7.24692 8.47683C7.25862 8.46456 7.26769 8.45003 7.27359 8.43413C7.27949 8.41824 7.2821 8.40131 7.28125 8.38437C7.2375 7.55156 6.78125 6.82656 6.11563 6.41406C6.40916 6.0914 6.57135 5.67058 6.57031 5.23438C6.57031 4.26719 5.79063 3.48438 4.82969 3.48438C3.86875 3.48438 3.08906 4.26719 3.08906 5.23438C3.08906 5.68906 3.26094 6.10156 3.54375 6.41406C3.20489 6.62405 2.92188 6.91293 2.71891 7.25603C2.51593 7.59914 2.39901 7.98627 2.37813 8.38437C2.37188 8.45625 2.42813 8.51562 2.5 8.51562ZM4.82812 4.42188C5.27344 4.42188 5.63594 4.78594 5.63594 5.23438C5.63594 5.68281 5.27344 6.04688 4.82812 6.04688C4.38281 6.04688 4.02031 5.68281 4.02031 5.23438C4.02031 4.78594 4.38281 4.42188 4.82812 4.42188Z" fill="white"/>
</svg>
