<svg width="22" height="23" viewBox="0 0 22 23" fill="none" xmlns="http://www.w3.org/2000/svg">
<path d="M11 7.05556V15.9444M1 11.5C1 12.8132 1.25866 14.1136 1.7612 15.3268C2.26375 16.5401 3.00035 17.6425 3.92893 18.5711C4.85752 19.4997 5.95991 20.2363 7.17317 20.7388C8.38642 21.2413 9.68678 21.5 11 21.5C12.3132 21.5 13.6136 21.2413 14.8268 20.7388C16.0401 20.2363 17.1425 19.4997 18.0711 18.5711C18.9997 17.6425 19.7363 16.5401 20.2388 15.3268C20.7413 14.1136 21 12.8132 21 11.5C21 10.1868 20.7413 8.88642 20.2388 7.67317C19.7363 6.45991 18.9997 5.35752 18.0711 4.42893C17.1425 3.50035 16.0401 2.76375 14.8268 2.2612C13.6136 1.75866 12.3132 1.5 11 1.5C9.68678 1.5 8.38642 1.75866 7.17317 2.2612C5.95991 2.76375 4.85752 3.50035 3.92893 4.42893C3.00035 5.35752 2.26375 6.45991 1.7612 7.67317C1.25866 8.88642 1 10.1868 1 11.5Z" stroke="#52C41A" stroke-width="2" stroke-linecap="round" stroke-linejoin="round"/>
</svg>
