<svg width="14" height="13" viewBox="0 0 14 13" fill="none" xmlns="http://www.w3.org/2000/svg">
<path d="M13.45 4.275C13.0986 3.4433 12.5892 2.68767 11.95 2.05C11.3123 1.41079 10.5567 0.901382 9.725 0.55C8.86094 0.184375 7.94531 0 7 0C6.05469 0 5.13906 0.184375 4.275 0.55C3.4433 0.901382 2.68767 1.41079 2.05 2.05C1.41079 2.68767 0.901382 3.4433 0.55 4.275C0.184375 5.13906 0 6.05469 0 7C0 9.07344 0.910937 11.0266 2.49844 12.3609L2.525 12.3828C2.61563 12.4578 2.72969 12.5 2.84688 12.5H11.1547C11.2719 12.5 11.3859 12.4578 11.4766 12.3828L11.5031 12.3609C13.0891 11.0266 14 9.07344 14 7C14 6.05469 13.8141 5.13906 13.45 4.275ZM10.8969 11.3125H3.10313C2.49937 10.7681 2.01683 10.1029 1.68681 9.35992C1.35679 8.61698 1.18667 7.81294 1.1875 7C1.1875 5.44688 1.79219 3.9875 2.89063 2.89063C3.98906 1.79219 5.44844 1.1875 7 1.1875C8.55313 1.1875 10.0125 1.79219 11.1094 2.89063C12.2078 3.98906 12.8125 5.44844 12.8125 7C12.8125 8.65 12.1172 10.2109 10.8969 11.3125ZM8.74219 4.83594C8.71869 4.81267 8.68697 4.79962 8.65391 4.79962C8.62084 4.79962 8.58912 4.81267 8.56563 4.83594L7.24531 6.15625C6.95313 6.07813 6.62969 6.15313 6.4 6.38281C6.31865 6.46401 6.2541 6.56046 6.21007 6.66663C6.16603 6.7728 6.14336 6.88662 6.14336 7.00156C6.14336 7.11651 6.16603 7.23032 6.21007 7.33649C6.2541 7.44267 6.31865 7.53911 6.4 7.62031C6.4812 7.70167 6.57765 7.76621 6.68382 7.81025C6.78999 7.85428 6.90381 7.87695 7.01875 7.87695C7.13369 7.87695 7.24751 7.85428 7.35368 7.81025C7.45985 7.76621 7.5563 7.70167 7.6375 7.62031C7.74632 7.51182 7.82458 7.37652 7.86436 7.2281C7.90414 7.07967 7.90404 6.92337 7.86406 6.775L9.18438 5.45469C9.23281 5.40625 9.23281 5.32656 9.18438 5.27812L8.74219 4.83594ZM6.65625 3.25H7.34375C7.4125 3.25 7.46875 3.19375 7.46875 3.125V1.875C7.46875 1.80625 7.4125 1.75 7.34375 1.75H6.65625C6.5875 1.75 6.53125 1.80625 6.53125 1.875V3.125C6.53125 3.19375 6.5875 3.25 6.65625 3.25ZM10.7188 6.65625V7.34375C10.7188 7.4125 10.775 7.46875 10.8438 7.46875H12.0938C12.1625 7.46875 12.2188 7.4125 12.2188 7.34375V6.65625C12.2188 6.5875 12.1625 6.53125 12.0938 6.53125H10.8438C10.775 6.53125 10.7188 6.5875 10.7188 6.65625ZM10.9172 3.575L10.4312 3.08906C10.4078 3.0658 10.376 3.05275 10.343 3.05275C10.3099 3.05275 10.2782 3.0658 10.2547 3.08906L9.37031 3.97344C9.34705 3.99693 9.334 4.02866 9.334 4.06172C9.334 4.09478 9.34705 4.12651 9.37031 4.15L9.85625 4.63594C9.90469 4.68438 9.98438 4.68438 10.0328 4.63594L10.9172 3.75156C10.9656 3.70313 10.9656 3.62344 10.9172 3.575ZM3.75156 3.08906C3.72807 3.0658 3.69634 3.05275 3.66328 3.05275C3.63022 3.05275 3.59849 3.0658 3.575 3.08906L3.08906 3.575C3.0658 3.59849 3.05275 3.63022 3.05275 3.66328C3.05275 3.69634 3.0658 3.72807 3.08906 3.75156L3.97344 4.63594C4.02187 4.68438 4.10156 4.68438 4.15 4.63594L4.63594 4.15C4.68438 4.10156 4.68438 4.02187 4.63594 3.97344L3.75156 3.08906ZM3.09375 6.53125H1.84375C1.775 6.53125 1.71875 6.5875 1.71875 6.65625V7.34375C1.71875 7.4125 1.775 7.46875 1.84375 7.46875H3.09375C3.1625 7.46875 3.21875 7.4125 3.21875 7.34375V6.65625C3.21875 6.5875 3.1625 6.53125 3.09375 6.53125Z" fill="white"/>
</svg>
