<svg width="12" height="12" viewBox="0 0 12 12" fill="none" xmlns="http://www.w3.org/2000/svg">
<path d="M11.8763 9.78647H10.639V8.62146C10.639 8.55738 10.5833 8.50495 10.5153 8.50495H9.77292C9.70487 8.50495 9.64919 8.55738 9.64919 8.62146V9.78647H8.41192C8.34387 9.78647 8.28819 9.8389 8.28819 9.90297V10.602C8.28819 10.6661 8.34387 10.7185 8.41192 10.7185H9.64919V11.8835C9.64919 11.9476 9.70487 12 9.77292 12H10.5153C10.5833 12 10.639 11.9476 10.639 11.8835V10.7185H11.8763C11.9443 10.7185 12 10.6661 12 10.602V9.90297C12 9.8389 11.9443 9.78647 11.8763 9.78647ZM3.85722 5.80212C3.8433 5.67542 3.83557 5.54727 3.83557 5.41766C3.83557 5.18612 3.85877 4.96039 3.90207 4.7405C3.9129 4.68807 3.88352 4.63419 3.83248 4.61235C3.62214 4.52351 3.42882 4.40119 3.26179 4.24682C3.06497 4.06713 2.91009 3.85078 2.80704 3.61157C2.70398 3.37237 2.65502 3.11556 2.66326 2.85754C2.67718 2.39008 2.87669 1.94592 3.22467 1.61098C3.60668 1.24254 4.12014 1.04157 4.66609 1.0474C5.15945 1.05177 5.6358 1.23089 5.99615 1.54836C6.11833 1.65612 6.2235 1.77553 6.31166 1.90369C6.34259 1.94883 6.4029 1.96776 6.45549 1.95029C6.72769 1.86145 7.01535 1.79883 7.31075 1.76971C7.39736 1.76097 7.44685 1.67359 7.40819 1.60078C6.90554 0.6644 5.87861 0.0178169 4.69083 0.000341694C2.97722 -0.0244149 1.54817 1.29933 1.54817 2.91288C1.54817 3.82742 1.99513 4.64293 2.69574 5.17738C2.20392 5.39145 1.75077 5.68707 1.35794 6.05697C0.510412 6.85355 0.0309704 7.90497 3.86726e-05 9.02775C-0.000374119 9.0433 0.00252125 9.05876 0.00855403 9.07323C0.0145868 9.08771 0.023635 9.10089 0.0351655 9.11202C0.0466959 9.12315 0.0604754 9.13199 0.0756918 9.13803C0.0909083 9.14407 0.107254 9.14717 0.123766 9.14717H0.9914C1.0579 9.14717 1.11358 9.09766 1.11513 9.03504C1.14451 8.1904 1.50796 7.39965 2.1467 6.79966C2.6014 6.37152 3.15817 6.07444 3.76598 5.93027C3.82475 5.91425 3.86496 5.86037 3.85722 5.80212ZM10.8246 5.41766C10.8246 3.8245 9.46514 2.52988 7.77937 2.50513C6.06575 2.48037 4.63825 3.80412 4.63825 5.41766C4.63825 6.3322 5.08676 7.14771 5.78582 7.68216C5.28891 7.89905 4.83655 8.19681 4.44957 8.56175C3.60204 9.35833 3.1226 10.4098 3.09166 11.5311C3.09125 11.5466 3.09415 11.5621 3.10018 11.5766C3.10621 11.591 3.11526 11.6042 3.12679 11.6153C3.13832 11.6265 3.1521 11.6353 3.16732 11.6414C3.18253 11.6474 3.19888 11.6505 3.21539 11.6505H4.08148C4.14798 11.6505 4.20366 11.601 4.20521 11.5384C4.23459 10.6937 4.59804 9.90297 5.23678 9.30299C5.90336 8.67534 6.788 8.3302 7.73142 8.3302C9.43885 8.3302 10.8246 7.02684 10.8246 5.41766ZM9.13108 6.73559C8.75681 7.088 8.26035 7.28169 7.73142 7.28169C7.20249 7.28169 6.70604 7.088 6.33176 6.73559C6.14499 6.56064 5.99742 6.35218 5.8978 6.12254C5.79817 5.8929 5.74852 5.64677 5.75179 5.39873C5.75643 4.92108 5.95903 4.45944 6.3132 4.11722C6.68438 3.75897 7.18084 3.55946 7.71132 3.55364C8.23561 3.54927 8.74444 3.7415 9.11871 4.08663C9.50226 4.44051 9.7126 4.91379 9.7126 5.41766C9.71105 5.91571 9.50536 6.38317 9.13108 6.73559Z" fill="white"/>
</svg>
