<svg width="13" height="15" viewBox="0 0 13 15" fill="none" xmlns="http://www.w3.org/2000/svg">
<path d="M3.5 7H3V8H3.5V7ZM9.5 8H10V7H9.5V8ZM7.5 10H7V11H7.5V10ZM9.5 11H10V10H9.5V11ZM3.5 4H3V5H3.5V4ZM5.5 5H6V4H5.5V5ZM9.5 0.5L9.854 0.146L9.707 0H9.5V0.5ZM12.5 3.5H13V3.293L12.854 3.146L12.5 3.5ZM3.5 8H9.5V7H3.5V8ZM7.5 11H9.5V10H7.5V11ZM3.5 5H5.5V4H3.5V5ZM11.5 14H1.5V15H11.5V14ZM1 13.5V1.5H0V13.5H1ZM1.5 1H9.5V0H1.5V1ZM12 3.5V13.5H13V3.5H12ZM9.146 0.854L12.146 3.854L12.854 3.146L9.854 0.146L9.146 0.854ZM1.5 14C1.36739 14 1.24021 13.9473 1.14645 13.8536C1.05268 13.7598 1 13.6326 1 13.5H0C0 13.8978 0.158035 14.2794 0.43934 14.5607C0.720644 14.842 1.10218 15 1.5 15V14ZM11.5 15C11.8978 15 12.2794 14.842 12.5607 14.5607C12.842 14.2794 13 13.8978 13 13.5H12C12 13.6326 11.9473 13.7598 11.8536 13.8536C11.7598 13.9473 11.6326 14 11.5 14V15ZM1 1.5C1 1.36739 1.05268 1.24021 1.14645 1.14645C1.24021 1.05268 1.36739 1 1.5 1V0C1.10218 0 0.720644 0.158035 0.43934 0.43934C0.158035 0.720644 0 1.10218 0 1.5H1Z" fill="white"/>
</svg>
