<svg width="12" height="12" viewBox="0 0 12 12" fill="none" xmlns="http://www.w3.org/2000/svg">
<path d="M6 12C4.32222 12 2.90289 11.7418 1.742 11.2253C0.581111 10.7089 0.000444444 10.0782 0 9.33333V2.66667C0 1.93333 0.586222 1.30556 1.75867 0.783333C2.93111 0.261111 4.34489 0 6 0C7.65511 0 9.06911 0.261111 10.242 0.783333C11.4149 1.30556 12.0009 1.93333 12 2.66667V9.33333C12 10.0778 11.4193 10.7084 10.258 11.2253C9.09666 11.7422 7.67733 12.0004 6 12ZM6 4.01667C6.98889 4.01667 7.98333 3.87489 8.98333 3.59133C9.98333 3.30778 10.5444 3.00511 10.6667 2.68333C10.5444 2.36111 9.98622 2.05556 8.992 1.76667C7.99778 1.47778 7.00044 1.33333 6 1.33333C4.98889 1.33333 3.99733 1.47511 3.02533 1.75867C2.05333 2.04222 1.48933 2.35044 1.33333 2.68333C1.48889 3.01667 2.05289 3.32222 3.02533 3.6C3.99778 3.87778 4.98933 4.01667 6 4.01667ZM6 7.33333C6.46667 7.33333 6.91667 7.31111 7.35 7.26667C7.78333 7.22222 8.19733 7.15822 8.592 7.07467C8.98666 6.99111 9.35889 6.88844 9.70866 6.76667C10.0584 6.64489 10.3778 6.506 10.6667 6.35V4.35C10.3778 4.50556 10.0584 4.64444 9.70866 4.76667C9.35889 4.88889 8.98666 4.99178 8.592 5.07533C8.19733 5.15889 7.78333 5.22267 7.35 5.26667C6.91667 5.31067 6.46667 5.33289 6 5.33333C5.53333 5.33378 5.07778 5.31156 4.63333 5.26667C4.18889 5.22178 3.76933 5.15778 3.37467 5.07467C2.98 4.99156 2.61067 4.88889 2.26667 4.76667C1.92267 4.64444 1.61156 4.50556 1.33333 4.35V6.35C1.61111 6.50556 1.92222 6.64444 2.26667 6.76667C2.61111 6.88889 2.98067 6.99178 3.37533 7.07533C3.77 7.15889 4.18933 7.22267 4.63333 7.26667C5.07733 7.31067 5.53289 7.33289 6 7.33333ZM6 10.6667C6.51111 10.6667 7.03067 10.6278 7.55867 10.55C8.08667 10.4722 8.57267 10.3696 9.01667 10.242C9.46066 10.1144 9.83289 9.97 10.1333 9.80867C10.4338 9.64733 10.6116 9.48333 10.6667 9.31667V7.68333C10.3778 7.83889 10.0584 7.97778 9.70866 8.1C9.35889 8.22222 8.98666 8.32511 8.592 8.40867C8.19733 8.49222 7.78333 8.556 7.35 8.6C6.91667 8.644 6.46667 8.66622 6 8.66667C5.53333 8.66711 5.07778 8.64489 4.63333 8.6C4.18889 8.55511 3.76933 8.49111 3.37467 8.408C2.98 8.32489 2.61067 8.22222 2.26667 8.1C1.92267 7.97778 1.61156 7.83889 1.33333 7.68333V9.33333C1.38889 9.5 1.564 9.66111 1.85867 9.81667C2.15333 9.97222 2.52267 10.114 2.96667 10.242C3.41067 10.37 3.89955 10.4727 4.43333 10.55C4.96711 10.6273 5.48933 10.6662 6 10.6667Z" fill="white"/>
</svg>
