<svg width="14" height="14" viewBox="0 0 14 14" fill="none" xmlns="http://www.w3.org/2000/svg">
<path d="M2.925 5.04688H4V6.12187C4 6.15 4.02813 6.17188 4.0625 6.17188H4.8125C4.84688 6.17188 4.875 6.15 4.875 6.12031V5.04688H5.95C5.97813 5.04688 6 5.01875 6 4.98438V4.23438C6 4.2 5.97813 4.17188 5.94844 4.17188H4.875V3.09688C4.875 3.06875 4.84688 3.04688 4.8125 3.04688H4.0625C4.02813 3.04688 4 3.06875 4 3.09688V4.17188H2.925C2.89687 4.17188 2.875 4.2 2.875 4.23438V4.98438C2.875 5.01875 2.89687 5.04688 2.925 5.04688ZM8.05 5.04688H11.075C11.1031 5.04688 11.125 5.01875 11.125 4.98438V4.23438C11.125 4.2 11.1031 4.17188 11.0734 4.17188H8.05C8.02188 4.17188 8 4.2 8 4.23438V4.98438C8 5.01875 8.02188 5.04688 8.05 5.04688ZM8.05 9.1875H11.075C11.1031 9.1875 11.125 9.15938 11.125 9.125V8.375C11.125 8.34063 11.1031 8.3125 11.0734 8.3125H8.05C8.02188 8.3125 8 8.34063 8 8.375V9.125C8 9.15938 8.02188 9.1875 8.05 9.1875ZM8.05 10.8125H11.075C11.1031 10.8125 11.125 10.7844 11.125 10.75V10C11.125 9.96563 11.1031 9.9375 11.0734 9.9375H8.05C8.02188 9.9375 8 9.96563 8 10V10.75C8 10.7844 8.02188 10.8125 8.05 10.8125ZM4.99219 9.54688L5.94844 8.37656C6.01563 8.29531 5.95937 8.17188 5.85625 8.17188H5.0625C5.02656 8.17188 4.99219 8.1875 4.97031 8.21719L4.43906 8.86719L3.90781 8.21719C3.89664 8.20342 3.88261 8.19224 3.86669 8.18442C3.85078 8.17659 3.83335 8.17232 3.81563 8.17188H3.02031C2.91719 8.17188 2.86094 8.29531 2.92812 8.37656L3.88438 9.54688L2.90469 10.7469C2.83594 10.8281 2.89219 10.9516 2.99531 10.9516H3.78906C3.825 10.9516 3.85938 10.9359 3.88125 10.9062L4.43594 10.2266L4.99062 10.9062C5.01406 10.9344 5.04844 10.9516 5.08281 10.9516H5.87656C5.97969 10.9516 6.03594 10.8281 5.96875 10.7469L4.99219 9.54688ZM12.75 0.75H1.25C0.973437 0.75 0.75 0.973437 0.75 1.25V12.75C0.75 13.0266 0.973437 13.25 1.25 13.25H12.75C13.0266 13.25 13.25 13.0266 13.25 12.75V1.25C13.25 0.973437 13.0266 0.75 12.75 0.75ZM12.1875 12.1875H1.8125V1.8125H12.1875V12.1875Z" fill="white"/>
</svg>
