<svg width="24" height="23" viewBox="0 0 24 23" fill="none" xmlns="http://www.w3.org/2000/svg">
<path d="M12 22C14.7848 22 17.4555 20.8938 19.4246 18.9246C21.3938 16.9555 22.5 14.2848 22.5 11.5C22.5 8.71523 21.3938 6.04451 19.4246 4.07538C17.4555 2.10625 14.7848 1 12 1C9.21523 1 6.54451 2.10625 4.57538 4.07538C2.60625 6.04451 1.5 8.71523 1.5 11.5C1.5 14.2848 2.60625 16.9555 4.57538 18.9246C6.54451 20.8938 9.21523 22 12 22Z" stroke="#116AB5" stroke-width="2" stroke-linecap="round" stroke-linejoin="round"/>
<path d="M13.168 11.4987C13.7868 11.4987 14.3803 11.7445 14.8179 12.1821C15.2555 12.6197 15.5013 13.2132 15.5013 13.832C15.5013 14.4509 15.2555 15.0444 14.8179 15.4819C14.3803 15.9195 13.7868 16.1654 13.168 16.1654H9.66797V11.4987M13.168 11.4987H9.66797M13.168 11.4987C13.7868 11.4987 14.3803 11.2529 14.8179 10.8153C15.2555 10.3777 15.5013 9.7842 15.5013 9.16536C15.5013 8.54653 15.2555 7.95303 14.8179 7.51545C14.3803 7.07786 13.7868 6.83203 13.168 6.83203H9.66797V11.4987" stroke="#116AB5" stroke-width="2" stroke-linecap="round" stroke-linejoin="round"/>
</svg>
