<svg width="12" height="16" viewBox="0 0 12 16" fill="none" xmlns="http://www.w3.org/2000/svg">
<path d="M10.134 0.855469C10.4734 0.855469 10.7426 0.964993 10.9414 1.18404C11.126 1.38709 11.2248 1.65766 11.238 1.99575L11.2397 2.0749V13.9218C11.2397 14.2924 11.1403 14.5883 10.9414 14.8095C10.7568 15.0148 10.5116 15.1248 10.2057 15.1395L10.1343 15.1412H1.68427C1.34027 15.1412 1.06884 15.0307 0.86998 14.8098C0.685599 14.604 0.586742 14.3341 0.573408 14L0.572266 13.9218V2.0749C0.572266 1.69966 0.671694 1.40261 0.870551 1.18375C1.05493 0.980707 1.30208 0.87185 1.61198 0.857183L1.68455 0.855469H10.134ZM9.77884 1.93433H2.03969C1.90579 1.93433 1.8075 1.96556 1.74484 2.02804C1.69017 2.0829 1.65941 2.16499 1.65255 2.27433L1.65112 2.3229V13.6738C1.65112 13.8078 1.68236 13.9061 1.74484 13.9686C1.79969 14.0233 1.88179 14.054 1.99112 14.0609L2.03969 14.0623H3.57398V12.0858C3.57398 11.8195 3.62941 11.618 3.74027 11.4815L3.77169 11.4458C3.89246 11.3208 4.07246 11.2532 4.31169 11.2429L4.37827 11.2415H7.43369C7.71065 11.2415 7.91388 11.3096 8.04341 11.4458C8.16207 11.5707 8.22636 11.7603 8.23627 12.0146L8.23769 12.0858V14.0623H9.77884C9.90836 14.0623 10.0045 14.0311 10.0671 13.9686C10.1218 13.9138 10.1526 13.8317 10.1594 13.7223L10.1608 13.6738V2.3229C10.1608 2.18899 10.1296 2.09071 10.0671 2.02804C10.0045 1.96556 9.90836 1.93433 9.77884 1.93433ZM7.14569 12.1192H4.66627C4.53541 12.1192 4.46446 12.1792 4.45341 12.2992L4.45198 12.3335L4.45169 14.0623H7.35998V12.3338C7.35998 12.2025 7.29998 12.1315 7.17998 12.1206L7.14569 12.1192ZM4.98798 8.35347C5.15788 8.35347 5.24903 8.43252 5.26141 8.59061L5.26284 8.62833V9.89461C5.26284 10.0645 5.18379 10.1557 5.02569 10.168L4.98798 10.1692H3.68141C3.5195 10.1692 3.43284 10.0902 3.42141 9.93233L3.41998 9.89461V8.62833C3.41998 8.45804 3.49512 8.3669 3.64541 8.3549L3.68141 8.35347H4.98798ZM8.12398 8.35347C8.29407 8.35347 8.38512 8.43252 8.39712 8.59061L8.39855 8.62833V9.89461C8.39855 10.0645 8.3196 10.1557 8.16169 10.168L8.12398 10.1692H6.82398C6.65827 10.1692 6.56941 10.0902 6.55741 9.93233L6.55598 9.89461V8.62833C6.55598 8.45804 6.63303 8.3669 6.78712 8.3549L6.82398 8.35347H8.12398ZM4.98798 5.70004C5.15788 5.70004 5.24903 5.77899 5.26141 5.9369L5.26284 5.97461V7.24118C5.26284 7.41109 5.18379 7.50223 5.02569 7.51461L4.98798 7.51575H3.68141C3.5195 7.51575 3.43284 7.4368 3.42141 7.2789L3.41998 7.24118V5.97461C3.41998 5.80452 3.49512 5.71347 3.64541 5.70147L3.68141 5.70004H4.98798ZM8.12398 5.70004C8.29407 5.70004 8.38512 5.77899 8.39712 5.9369L8.39855 5.97461V7.24118C8.39855 7.41109 8.3196 7.50223 8.16169 7.51461L8.12398 7.51575H6.82398C6.65827 7.51575 6.56941 7.4368 6.55741 7.2789L6.55598 7.24118V5.97461C6.55598 5.80452 6.63303 5.71347 6.78712 5.70147L6.82398 5.70004H8.12398ZM4.98798 3.04661C5.15788 3.04661 5.24903 3.12556 5.26141 3.28347L5.26284 3.32118V4.58775C5.26284 4.75766 5.18379 4.8488 5.02569 4.86118L4.98798 4.86233H3.68141C3.5195 4.86233 3.43284 4.78337 3.42141 4.62547L3.41998 4.58775V3.32118C3.41998 3.15109 3.49512 3.06004 3.64541 3.04804L3.68141 3.04661H4.98798ZM8.12398 3.04661C8.29407 3.04661 8.38512 3.12556 8.39712 3.28347L8.39855 3.32118V4.58775C8.39855 4.75766 8.3196 4.8488 8.16169 4.86118L8.12398 4.86233H6.82398C6.65827 4.86233 6.56941 4.78337 6.55741 4.62547L6.55598 4.58775V3.32118C6.55598 3.15109 6.63303 3.06004 6.78712 3.04804L6.82398 3.04661H8.12398Z" fill="white"/>
</svg>
