<svg width="18" height="19" viewBox="0 0 18 19" fill="none" xmlns="http://www.w3.org/2000/svg">
<path d="M9 17.3359C11.1217 17.3359 13.1566 16.4931 14.6569 14.9928C16.1571 13.4925 17 11.4577 17 9.33594C17 7.21421 16.1571 5.17937 14.6569 3.67908C13.1566 2.17879 11.1217 1.33594 9 1.33594C6.87827 1.33594 4.84344 2.17879 3.34315 3.67908C1.84285 5.17937 1 7.21421 1 9.33594C1 11.4577 1.84285 13.4925 3.34315 14.9928C4.84344 16.4931 6.87827 17.3359 9 17.3359Z" stroke="#52C41A" stroke-width="2" stroke-linecap="round" stroke-linejoin="round"/>
<path d="M6.83203 12.8852V9.32964M6.83203 9.32964H9.89097C10.2231 9.32964 11.3884 9.32964 11.6478 9.32964M6.83203 9.32964L8.60938 5.77408H9.4997C9.4997 5.77408 9.4602 5.77263 9.76886 5.77408C9.93317 6.00113 10.6481 7.5 11.6478 9.32964M11.6478 12.8852C11.6478 12.6489 11.6478 11.0006 11.6478 9.32964" stroke="#52C41A" stroke-width="2" stroke-linecap="round" stroke-linejoin="round"/>
</svg>
