<svg width="12" height="14" viewBox="0 0 12 14" fill="none" xmlns="http://www.w3.org/2000/svg">
<path d="M6 0L0 2V8C0 11.3141 2.68594 14 6 14C9.31406 14 12 11.3141 12 8V2L6 0ZM10.875 8C10.875 10.6922 8.69219 12.875 6 12.875C3.30781 12.875 1.125 10.6922 1.125 8V2.84375L6 1.125L10.875 2.84375V8Z" fill="white"/>
<path d="M3.91145 6.42372C3.85932 6.37134 3.79735 6.32978 3.72911 6.30143C3.66087 6.27307 3.58769 6.25847 3.51379 6.25847C3.4399 6.25847 3.36672 6.27307 3.29848 6.30143C3.23024 6.32978 3.16827 6.37134 3.11614 6.42372C3.06377 6.47585 3.02221 6.53782 2.99385 6.60606C2.96549 6.6743 2.95089 6.74747 2.95089 6.82137C2.95089 6.89527 2.96549 6.96844 2.99385 7.03668C3.02221 7.10493 3.06377 7.16689 3.11614 7.21903L5.17083 9.27372C5.22014 9.32312 5.27872 9.36232 5.3432 9.38907C5.40768 9.41581 5.4768 9.42958 5.54661 9.42958C5.61641 9.42958 5.68554 9.41581 5.75002 9.38907C5.8145 9.36232 5.87307 9.32312 5.92239 9.27372L9.41458 5.78153C9.46398 5.73221 9.50318 5.67364 9.52993 5.60916C9.55667 5.54468 9.57044 5.47556 9.57044 5.40575C9.57044 5.33594 9.55667 5.26682 9.52993 5.20234C9.50318 5.13786 9.46398 5.07928 9.41458 5.02997L9.37083 4.98622C9.32151 4.93681 9.26294 4.89761 9.19846 4.87087C9.13398 4.84412 9.06485 4.83036 8.99504 4.83036C8.92524 4.83036 8.85612 4.84412 8.79163 4.87087C8.72715 4.89761 8.66858 4.93681 8.61926 4.98622L5.54583 8.05809L3.91145 6.42372Z" fill="white"/>
</svg>
