<svg width="18" height="19" viewBox="0 0 18 19" fill="none" xmlns="http://www.w3.org/2000/svg">
<path d="M9 17.3359C11.1217 17.3359 13.1566 16.4931 14.6569 14.9928C16.1571 13.4925 17 11.4577 17 9.33594C17 7.21421 16.1571 5.17937 14.6569 3.67908C13.1566 2.17879 11.1217 1.33594 9 1.33594C6.87827 1.33594 4.84344 2.17879 3.34315 3.67908C1.84285 5.17937 1 7.21421 1 9.33594C1 11.4577 1.84285 13.4925 3.34315 14.9928C4.84344 16.4931 6.87827 17.3359 9 17.3359Z" stroke="#116AB5" stroke-width="2" stroke-linecap="round" stroke-linejoin="round"/>
<path d="M9.89128 9.32899C10.3628 9.32899 10.815 9.51629 11.1484 9.84969C11.4818 10.1831 11.6691 12.4131 11.6691 12.8845M9.89128 9.32899H7.22461M9.89128 9.32899C10.3628 9.32899 10.815 9.14169 11.1484 8.80829C11.4818 8.4749 11.6691 8.02271 11.6691 7.55122C11.6691 7.07972 11.4818 6.62753 11.1484 6.29414C10.815 5.96074 10.3628 5.77344 9.89128 5.77344H7.22461V9.32899M7.22461 12.8845V9.32899" stroke="#116AB5" stroke-width="2" stroke-linecap="round" stroke-linejoin="round"/>
</svg>
