<svg width="18" height="19" viewBox="0 0 18 19" fill="none" xmlns="http://www.w3.org/2000/svg">
<path d="M9 17.3359C11.1217 17.3359 13.1566 16.4931 14.6569 14.9928C16.1571 13.4925 17 11.4577 17 9.33594C17 7.21421 16.1571 5.17937 14.6569 3.67908C13.1566 2.17879 11.1217 1.33594 9 1.33594C6.87827 1.33594 4.84344 2.17879 3.34315 3.67908C1.84285 5.17937 1 7.21421 1 9.33594C1 11.4577 1.84285 13.4925 3.34315 14.9928C4.84344 16.4931 6.87827 17.3359 9 17.3359Z" stroke="#2897FF" stroke-width="2" stroke-linecap="round" stroke-linejoin="round"/>
<path d="M5 12.8845V9.33594M5 9.33594V5.77344M5 9.33594H8V12.8845V5.77344M13.1697 5.77344H11.23L10.5 7V11.5L11.23 12.8845H13" stroke="#2897FF" stroke-width="2" stroke-linecap="round" stroke-linejoin="round"/>
</svg>
