<svg width="14" height="14" viewBox="0 0 14 14" fill="none" xmlns="http://www.w3.org/2000/svg">
<path d="M4.42857 8.33333L9.57143 4.33333M4.85714 4.66667H4.86571M9.14286 8H9.15143M13 13V2.33333C13 1.97971 12.8194 1.64057 12.4979 1.39052C12.1764 1.14048 11.7404 1 11.2857 1H2.71429C2.25963 1 1.82359 1.14048 1.5021 1.39052C1.18061 1.64057 1 1.97971 1 2.33333V13L4 11.6667L7 13L10 11.6667L13 13ZM5.28571 4.66667C5.28571 4.75507 5.24056 4.83986 5.16019 4.90237C5.07982 4.96488 4.97081 5 4.85714 5C4.74348 5 4.63447 4.96488 4.5541 4.90237C4.47372 4.83986 4.42857 4.75507 4.42857 4.66667C4.42857 4.57826 4.47372 4.49348 4.5541 4.43096C4.63447 4.36845 4.74348 4.33333 4.85714 4.33333C4.97081 4.33333 5.07982 4.36845 5.16019 4.43096C5.24056 4.49348 5.28571 4.57826 5.28571 4.66667ZM9.57143 8C9.57143 8.08841 9.52628 8.17319 9.4459 8.2357C9.36553 8.29821 9.25652 8.33333 9.14286 8.33333C9.02919 8.33333 8.92018 8.29821 8.83981 8.2357C8.75944 8.17319 8.71429 8.08841 8.71429 8C8.71429 7.91159 8.75944 7.82681 8.83981 7.7643C8.92018 7.70179 9.02919 7.66667 9.14286 7.66667C9.25652 7.66667 9.36553 7.70179 9.4459 7.7643C9.52628 7.82681 9.57143 7.91159 9.57143 8Z" stroke="white" stroke-linecap="round" stroke-linejoin="round"/>
</svg>
