<svg width="12" height="14" viewBox="0 0 12 14" fill="none" xmlns="http://www.w3.org/2000/svg">
<path d="M2.625 2.90625C2.55625 2.90625 2.5 2.9625 2.5 3.03125V3.78125C2.5 3.85 2.55625 3.90625 2.625 3.90625H8.625C8.69375 3.90625 8.75 3.85 8.75 3.78125V3.03125C8.75 2.9625 8.69375 2.90625 8.625 2.90625H2.625ZM5.5 5.15625H2.625C2.55625 5.15625 2.5 5.2125 2.5 5.28125V6.03125C2.5 6.1 2.55625 6.15625 2.625 6.15625H5.5C5.56875 6.15625 5.625 6.1 5.625 6.03125V5.28125C5.625 5.2125 5.56875 5.15625 5.5 5.15625ZM4.75 12.3125H1.25V1.3125H10V6.3125C10 6.38125 10.0563 6.4375 10.125 6.4375H11C11.0688 6.4375 11.125 6.38125 11.125 6.3125V0.6875C11.125 0.410937 10.9016 0.1875 10.625 0.1875H0.625C0.348437 0.1875 0.125 0.410937 0.125 0.6875V12.9375C0.125 13.2141 0.348437 13.4375 0.625 13.4375H4.75C4.81875 13.4375 4.875 13.3813 4.875 13.3125V12.4375C4.875 12.3688 4.81875 12.3125 4.75 12.3125ZM11.625 10.9375H9.375V10.3656C10.0984 10.15 10.625 9.48125 10.625 8.6875C10.625 7.72031 9.84219 6.9375 8.875 6.9375C7.90781 6.9375 7.125 7.72031 7.125 8.6875C7.125 9.47969 7.65156 10.15 8.375 10.3656V10.9375H6.125C5.9875 10.9375 5.875 11.05 5.875 11.1875V13.5625C5.875 13.7 5.9875 13.8125 6.125 13.8125H11.625C11.7625 13.8125 11.875 13.7 11.875 13.5625V11.1875C11.875 11.05 11.7625 10.9375 11.625 10.9375ZM8.09375 8.6875C8.09375 8.25625 8.44375 7.90625 8.875 7.90625C9.30625 7.90625 9.65625 8.25625 9.65625 8.6875C9.65625 9.11875 9.30625 9.46875 8.875 9.46875C8.44375 9.46875 8.09375 9.11875 8.09375 8.6875ZM10.9063 12.8438H6.84375V11.9063H10.9063V12.8438Z" fill="white"/>
</svg>
