<svg width="20" height="20" viewBox="0 0 20 20" fill="none" xmlns="http://www.w3.org/2000/svg">
  <g transform="translate(-6, 0)">
    <path d="M10,16.5c0-1.2-0.9-2.2-2-2.4V4H7v10.1c-1.1,0.2-2,1.2-2,2.4s0.9,2.2,2,2.4V20h1v-1.1C9.1,18.7,10,17.7,10,16.5z M6,16.5
    c0-0.7,0.4-1.2,1-1.4C7.2,15,7.3,15,7.5,15s0.3,0,0.5,0.1c0.6,0.2,1,0.8,1,1.4s-0.4,1.2-1,1.4C7.8,18,7.7,18,7.5,18S7.2,18,7,17.9   C6.4,17.7,6,17.2,6,16.5z" fill="white"/>
    <path d="M15,7.5c0-1.2-0.9-2.2-2-2.4V4h-1v1.1c-1.1,0.2-2,1.2-2,2.4s0.9,2.2,2,2.4V20h1V9.9C14.1,9.7,15,8.7,15,7.5z M11,7.5   c0-0.7,0.4-1.2,1-1.4C12.2,6,12.3,6,12.5,6s0.3,0,0.5,0.1c0.6,0.2,1,0.8,1,1.4s-0.4,1.2-1,1.4C12.8,9,12.7,9,12.5,9S12.2,9,12,8.9   C11.4,8.7,11,8.2,11,7.5z" fill="white"/>
    <path d="M20,12.5c0-1.2-0.9-2.2-2-2.4V4h-1v6.1c-1.1,0.2-2,1.2-2,2.4s0.9,2.2,2,2.4V20h1v-5.1C19.1,14.7,20,13.7,20,12.5z M16,12.5   c0-0.7,0.4-1.2,1-1.4c0.2-0.1,0.3-0.1,0.5-0.1s0.3,0,0.5,0.1c0.6,0.2,1,0.8,1,1.4s-0.4,1.2-1,1.4C17.8,14,17.7,14,17.5,14   s-0.3,0-0.5-0.1C16.4,13.7,16,13.2,16,12.5z" fill="white"/>
  </g>
</svg>
